# xmcd
#
# Track frame offsets: 
#        150
#        14892
#        29246
#        45676
#        62275
#        78014
#        93011
#        106860
#        122279
#        137903
#        151610
#
# Disc length: 2203 seconds
#
# Revision: 0
# Processed by: cddbd v1.5.2PL0 Copyright (c) Steve Scherf et al.
# Submitted via: ExactAudioCopy v0.95b3
#
DISCID=7c08990b
DTITLE=Adam Gregory - Crazy Days
DYEAR=2009
DGENRE=Country
TTITLE0=Crazy Days
TTITLE1=Could I Just Be Me
TTITLE2=What It Takes
TTITLE3=Fast Enough
TTITLE4=Stronger
TTITLE5=Down the Road
TTITLE6=Get It While the Gettin's Good
TTITLE7=If I'd Only
TTITLE8=Then She Cried
TTITLE9=Blue Corvette
TTITLE10=What Would Jesus Do
EXTD=
EXTT0=
EXTT1=
EXTT2=
EXTT3=
EXTT4=
EXTT5=
EXTT6=
EXTT7=
EXTT8=
EXTT9=
EXTT10=
PLAYORDER=
